<mxfile host="app.diagrams.net" agent="Mozilla/5.0 (Macintosh; Intel Mac OS X 10_15_7) AppleWebKit/537.36 (KHTML, like Gecko) Chrome/130.0.0.0 Safari/537.36" version="24.8.4">
  <diagram name="第 1 页" id="TvVp-uYA8dFQylWaAkoy">
    <mxGraphModel dx="1021" dy="591" grid="1" gridSize="10" guides="1" tooltips="1" connect="1" arrows="1" fold="1" page="1" pageScale="1" pageWidth="827" pageHeight="1169" math="0" shadow="0">
      <root>
        <mxCell id="0" />
        <mxCell id="1" parent="0" />
        <mxCell id="nkj0s5-rF8sheBsWoZKw-13" value="" style="swimlane;startSize=0;" vertex="1" parent="1">
          <mxGeometry x="80" y="50" width="600" height="470" as="geometry" />
        </mxCell>
        <mxCell id="nkj0s5-rF8sheBsWoZKw-14" value="看板定义" style="swimlane;whiteSpace=wrap;html=1;" vertex="1" parent="nkj0s5-rF8sheBsWoZKw-13">
          <mxGeometry x="200" y="30" width="200" height="439" as="geometry" />
        </mxCell>
        <mxCell id="nkj0s5-rF8sheBsWoZKw-23" value="创建看板" style="rounded=1;whiteSpace=wrap;html=1;" vertex="1" parent="nkj0s5-rF8sheBsWoZKw-14">
          <mxGeometry x="40" y="40" width="120" height="60" as="geometry" />
        </mxCell>
        <mxCell id="nkj0s5-rF8sheBsWoZKw-15" value="数据配置" style="swimlane;whiteSpace=wrap;html=1;" vertex="1" parent="nkj0s5-rF8sheBsWoZKw-13">
          <mxGeometry x="400" y="30" width="200" height="439" as="geometry" />
        </mxCell>
        <mxCell id="nkj0s5-rF8sheBsWoZKw-8" style="edgeStyle=orthogonalEdgeStyle;rounded=0;orthogonalLoop=1;jettySize=auto;html=1;exitX=0.5;exitY=1;exitDx=0;exitDy=0;entryX=0.5;entryY=0;entryDx=0;entryDy=0;" edge="1" parent="nkj0s5-rF8sheBsWoZKw-15" source="nkj0s5-rF8sheBsWoZKw-1" target="nkj0s5-rF8sheBsWoZKw-2">
          <mxGeometry relative="1" as="geometry" />
        </mxCell>
        <mxCell id="nkj0s5-rF8sheBsWoZKw-1" value="选择 SaaS" style="rounded=1;whiteSpace=wrap;html=1;" vertex="1" parent="nkj0s5-rF8sheBsWoZKw-15">
          <mxGeometry x="40" y="40" width="120" height="60" as="geometry" />
        </mxCell>
        <mxCell id="nkj0s5-rF8sheBsWoZKw-9" style="edgeStyle=orthogonalEdgeStyle;rounded=0;orthogonalLoop=1;jettySize=auto;html=1;exitX=0.5;exitY=1;exitDx=0;exitDy=0;entryX=0.5;entryY=0;entryDx=0;entryDy=0;" edge="1" parent="nkj0s5-rF8sheBsWoZKw-15" source="nkj0s5-rF8sheBsWoZKw-2">
          <mxGeometry relative="1" as="geometry">
            <mxPoint x="100" y="200" as="targetPoint" />
          </mxGeometry>
        </mxCell>
        <mxCell id="nkj0s5-rF8sheBsWoZKw-2" value="选择 空间" style="rounded=1;whiteSpace=wrap;html=1;" vertex="1" parent="nkj0s5-rF8sheBsWoZKw-15">
          <mxGeometry x="40" y="120" width="120" height="60" as="geometry" />
        </mxCell>
        <mxCell id="nkj0s5-rF8sheBsWoZKw-6" value="配置空间物模型" style="rounded=1;whiteSpace=wrap;html=1;" vertex="1" parent="nkj0s5-rF8sheBsWoZKw-15">
          <mxGeometry x="40" y="200" width="120" height="60" as="geometry" />
        </mxCell>
        <mxCell id="nkj0s5-rF8sheBsWoZKw-16" value="&lt;font style=&quot;font-size: 14px;&quot;&gt;&lt;b&gt;首页看板&lt;/b&gt;&lt;/font&gt;" style="text;html=1;align=center;verticalAlign=middle;resizable=0;points=[];autosize=1;strokeColor=none;fillColor=none;" vertex="1" parent="nkj0s5-rF8sheBsWoZKw-13">
          <mxGeometry x="5" width="80" height="30" as="geometry" />
        </mxCell>
        <mxCell id="nkj0s5-rF8sheBsWoZKw-22" value="面板定义" style="swimlane;whiteSpace=wrap;html=1;" vertex="1" parent="1">
          <mxGeometry x="80" y="81" width="200" height="439" as="geometry" />
        </mxCell>
        <mxCell id="nkj0s5-rF8sheBsWoZKw-19" value="创建面板" style="rounded=1;whiteSpace=wrap;html=1;" vertex="1" parent="nkj0s5-rF8sheBsWoZKw-22">
          <mxGeometry x="40" y="39" width="120" height="60" as="geometry" />
        </mxCell>
        <mxCell id="nkj0s5-rF8sheBsWoZKw-18" value="入面板库" style="rounded=1;whiteSpace=wrap;html=1;" vertex="1" parent="nkj0s5-rF8sheBsWoZKw-22">
          <mxGeometry x="40" y="328" width="120" height="60" as="geometry" />
        </mxCell>
      </root>
    </mxGraphModel>
  </diagram>
</mxfile>
